<?xml version="1.0" encoding="utf-8"?>
<!DOCTYPE svg PUBLIC "-//W3C//DTD SVG 1.1//EN" "http://www.w3.org/Graphics/SVG/1.1/DTD/svg11.dtd">
<svg version="1.1" id="icon_moustache" xmlns="http://www.w3.org/2000/svg" xmlns:xlink="http://www.w3.org/1999/xlink" x="0px" y="0px"
	 width="100px" height="100px" viewBox="0 0 100 100" enable-background="new 0 0 100 100" xml:space="preserve">
<path fill="#f44336" d="M80.439,46.925c-0.062-0.328-0.3-0.608-0.621-0.734c-0.107-0.041-0.225-0.062-0.345-0.062
	c-0.216,0-0.43,0.071-0.604,0.199c0.001,0-1.733,1.322-4.532,1.322c-1.327,0-2.684-0.301-4.028-0.893
	c-1.717-0.757-2.987-2.349-4.216-3.889c-0.456-0.571-0.886-1.111-1.319-1.581c-2.154-2.339-4.382-4.757-8.043-4.784
	c-2.43,0-4.694,0.924-6.724,2.747l-0.677,0.609l-0.678-0.609c-2.066-1.858-4.299-2.762-6.826-2.763
	c-3.567,0.03-5.746,2.437-7.853,4.765c-0.424,0.469-0.84,1-1.281,1.563c-1.219,1.555-2.479,3.164-4.21,3.926
	c-1.345,0.592-2.687,0.893-3.987,0.893c-2.549,0-4.152-1.152-4.327-1.284c-0.208-0.169-0.427-0.248-0.649-0.248
	c-0.111,0-0.221,0.02-0.327,0.058c-0.327,0.115-0.571,0.396-0.642,0.735c-1.093,5.254,0.611,8.734,2.233,10.729
	c2.435,2.993,6.538,4.854,10.709,4.854c5.671,0,8.79-2.408,11.54-4.533l0.201-0.154c1.012-0.78,1.922-1.553,2.725-2.234l0.07-0.06
	c1.633-1.388,2.239-1.874,2.642-2.035l0.134-0.054l0.11-0.012c0.127-0.022,0.265-0.044,0.332-0.05l0.112-0.009l0.073,0.01
	c0.053,0.004,0.146,0.007,0.171,0.008l0.153,0.005l0.151,0.05c0.559,0.193,1.397,0.875,3.188,2.43l0.048,0.043
	c0.673,0.582,1.435,1.241,2.251,1.912c2.285,1.871,5.74,4.701,11.756,4.701c4.219,0,8.398-1.889,10.906-4.926
	C79.697,55.58,81.443,52.12,80.439,46.925z M76.541,56.291c-2.139,2.596-5.737,4.209-9.391,4.209c-5.322,0-8.323-2.461-10.515-4.258
	c-0.794-0.65-1.491-1.253-2.256-1.918c-1.916-1.662-3.179-2.758-4.337-2.92l-0.033-0.005l-0.032-0.007c0,0.001,0,0.001,0,0.001
	c-0.01,0-0.085-0.01-0.107-0.013l-0.014-0.206c-0.047-0.004-0.156-0.221-0.211-0.221h-0.013l-0.049,0.2
	c-0.044-0.004-0.151,0.096-0.193,0.096c-0.275,0-0.718,0.114-0.865,0.139c-0.998,0.174-2.099,1.138-3.768,2.557l-0.104,0.101
	c-0.767,0.651-1.638,1.396-2.622,2.156l-0.196,0.154c-2.505,1.935-5.341,4.125-10.343,4.125c-3.595,0-7.114-1.581-9.186-4.124
	c-1.417-1.743-2.134-3.84-2.132-6.235l0.002-1.36l1.311,0.412c0.958,0.301,1.97,0.454,3.008,0.454c1.571,0,3.177-0.356,4.772-1.059
	c1.972-0.866,3.516-2.767,4.879-4.443c0.443-0.545,0.862-1.06,1.279-1.522c1.988-2.201,3.707-4.103,6.473-4.123
	c3.286,0,5.387,2.02,6.684,3.539c0.188,0.221,0.459,0.347,0.746,0.347c0.287,0,0.56-0.126,0.748-0.346
	c1.292-1.512,3.395-3.524,6.713-3.524c2.738,0.022,4.502,1.935,6.541,4.149c0.431,0.467,0.863,0.99,1.32,1.544
	c1.371,1.658,2.923,3.538,4.873,4.395c1.596,0.702,3.217,1.059,4.813,1.059c1.07,0,2.12-0.156,3.119-0.465l1.335-0.412l-0.027,1.383
	C78.715,52.498,77.968,54.564,76.541,56.291z"/>
</svg>
