<?xml version="1.0" encoding="utf-8"?>
<!DOCTYPE svg PUBLIC "-//W3C//DTD SVG 1.1//EN" "http://www.w3.org/Graphics/SVG/1.1/DTD/svg11.dtd">
<svg version="1.1" id="icon_cap" xmlns="http://www.w3.org/2000/svg" xmlns:xlink="http://www.w3.org/1999/xlink" x="0px" y="0px"
	 width="100px" height="100px" viewBox="0 0 100 100" enable-background="new 0 0 100 100" xml:space="preserve">
<path fill-rule="evenodd" clip-rule="evenodd" fill="#f44336" d="M78.729,61.875l-0.745-0.288V61.01V44.887v-0.602l0.779-0.281
	l1.129-0.531c0.332-0.173,0.599-0.509,0.603-0.878c0.004-0.368-0.164-0.708-0.488-0.887L49.924,25.627
	c-0.155-0.086-0.314-0.128-0.481-0.128c-0.171,0-0.337,0.044-0.488,0.128L19.003,41.741c-0.307,0.171-0.503,0.509-0.501,0.874
	c0.002,0.363,0.204,0.698,0.526,0.872l13.153,6.991l0.907,0.482l-0.752,0.893c-0.09,0.16-0.38,0.324-0.38,0.488v16.911
	c0,0.286,0.366,0.558,0.579,0.747c0.16,0.143,4.216,3.5,16.765,3.5c12.531,0,16.865-3.185,17.031-3.32
	c0.233-0.19,0.646-0.473,0.646-0.773V52.059c0-0.137-0.246-0.269-0.301-0.396l-0.473-0.847l0.762-0.431l7.821-4.269l1.195-0.775V47
	v14.021v0.573l-0.249,0.29c-0.938,0.548-1.374,1.511-1.374,2.574c0,1.653,1.407,2.997,3.062,2.997s2.91-1.344,2.91-2.997
	C80.333,63.387,79.676,62.421,78.729,61.875z M64.977,53.294V68.26v0.629l-0.785,0.271c-1.82,0.875-6.242,2.342-14.66,2.342
	c-8.429,0-12.961-1.539-14.734-2.457l-0.839-0.279v-0.607V53.347v-1.664l1.715,0.782l13.118,6.908
	c0.151,0.082,0.375,0.123,0.541,0.123c0.16,0,0.35-0.038,0.49-0.112l13.454-6.974l1.7-0.774V53.294z M75.787,43.427l-25.91,13.689
	l-0.469,0.248l-0.469-0.249l-25.74-13.65l-1.656-0.878l1.653-0.885L48.981,27.9l0.471-0.252l0.472,0.251l25.865,13.762l1.664,0.885
	L75.787,43.427z"/>
</svg>
