<?xml version="1.0" encoding="utf-8"?>
<!DOCTYPE svg PUBLIC "-//W3C//DTD SVG 1.1//EN" "http://www.w3.org/Graphics/SVG/1.1/DTD/svg11.dtd">
<svg version="1.1" id="icon_glasses" xmlns="http://www.w3.org/2000/svg" xmlns:xlink="http://www.w3.org/1999/xlink" x="0px" y="0px"
	 width="100px" height="100px" viewBox="0 0 100 100" enable-background="new 0 0 100 100" xml:space="preserve">
<path fill="#f44336" d="M80.428,59.223c-0.006-0.086-0.012-0.174-0.016-0.261l-0.006-0.157l0.042-0.153
	c0.035-0.128,0.049-0.239,0.042-0.339c-0.065-0.756-2.131-13.007-3.123-18.895c-0.316-1.884-0.564-3.353-0.678-4.03
	c-0.043-0.265-0.08-0.546-0.118-0.839l-0.017-0.13c-0.402-3.155-1.01-7.919-9.323-7.919c-0.55,0-0.997,0.449-0.997,1
	c0,0.551,0.447,1,0.997,1c6.558,0,6.958,3.138,7.346,6.172c0.047,0.365,0.092,0.715,0.146,1.042
	c0.076,0.454,0.236,1.341,0.449,2.521c0.452,2.5,1.136,6.278,1.754,10.047l0.408,2.484l-1.996-1.527
	c-2.275-1.74-4.978-2.659-7.816-2.659c-4.554,0-8.867,2.436-11.254,6.355l-0.431,0.708l-0.773-0.293
	c-1.151-0.437-3.056-0.956-5.592-0.956c-2.521,0-4.374,0.541-5.484,0.995l-0.796,0.325l-0.438-0.743
	c-2.32-3.943-6.582-6.392-11.124-6.392c-2.959,0-5.878,1.029-8.218,2.897l-2.026,1.618l0.422-2.562
	c0.62-3.776,1.318-7.616,1.781-10.156c0.227-1.249,0.398-2.188,0.476-2.661c0.055-0.328,0.1-0.679,0.146-1.045
	c0.388-3.033,0.788-6.171,7.346-6.171c0.55,0,0.997-0.449,0.997-1c0-0.551-0.447-1-0.997-1c-8.313,0-8.921,4.764-9.322,7.916
	l-0.018,0.132c-0.038,0.294-0.075,0.574-0.119,0.84c-0.622,3.744-3.528,21.905-3.602,22.798c-0.005,0.074,0.004,0.163,0.028,0.279
	l0.028,0.133l-0.009,0.134l-0.016,0.237c-0.014,0.189-0.027,0.379-0.027,0.572c0,7.145,5.89,12.959,13.129,12.959
	c7.125,0,12.921-5.814,12.921-12.959c0-1.018-0.133-2.072-0.397-3.133l-0.209-0.845l0.805-0.325
	c0.954-0.385,2.548-0.843,4.722-0.843c2.109,0,3.728,0.416,4.713,0.765l0.864,0.307l-0.231,0.89
	c-0.281,1.08-0.425,2.151-0.425,3.185c0,7.145,5.891,12.959,13.129,12.959c7.125,0,12.921-5.814,12.921-12.959
	C80.442,59.434,80.436,59.327,80.428,59.223z M31.63,70.5c-6.036,0-11.135-5.019-11.135-10.959c0-5.941,5.099-10.96,11.135-10.96
	c6.025,0,10.927,4.916,10.927,10.96C42.557,65.584,37.655,70.5,31.63,70.5z M67.521,70.5c-6.035,0-11.135-5.019-11.135-10.959
	c0-5.941,5.1-10.96,11.135-10.96c5.077,0,9.561,3.609,10.661,8.582l0.013,0.058l0.006,0.06c0.042,0.418,0.077,0.812,0.102,1.171
	c0.004,0.048,0.021,0.11,0.053,0.19l0.057,0.148l0.008,0.157l0.01,0.151c0.01,0.147,0.019,0.294,0.019,0.442
	C78.448,65.584,73.547,70.5,67.521,70.5z"/>
</svg>
