<?xml version="1.0" encoding="utf-8"?>
<!DOCTYPE svg PUBLIC "-//W3C//DTD SVG 1.1//EN" "http://www.w3.org/Graphics/SVG/1.1/DTD/svg11.dtd">
<svg version="1.1" id="icon_graph" xmlns="http://www.w3.org/2000/svg" xmlns:xlink="http://www.w3.org/1999/xlink" x="0px" y="0px"
	 width="100px" height="100px" viewBox="0 0 100 100" enable-background="new 0 0 100 100" xml:space="preserve">
<g>
	<g>
		<path fill="#f44336" d="M77,32.5c-2.485,0-4.5,2.015-4.5,4.5c0,0.9,0.271,1.735,0.727,2.438L60.33,49.998
			C59.507,49.085,58.326,48.5,57,48.5c-1.675,0-3.119,0.926-3.895,2.284l-10.66-5.245C42.467,45.36,42.5,45.185,42.5,45
			c0-2.485-2.015-4.5-4.5-4.5s-4.5,2.015-4.5,4.5c0,1.144,0.44,2.175,1.142,2.969l-9.368,11.167C24.604,58.742,23.833,58.5,23,58.5
			c-2.485,0-4.5,2.015-4.5,4.5s2.015,4.5,4.5,4.5s4.5-2.015,4.5-4.5c0-0.926-0.281-1.785-0.76-2.5l9.521-11.35
			c0.535,0.225,1.122,0.35,1.739,0.35c1.585,0,2.972-0.824,3.774-2.062l10.753,5.291C52.521,52.82,52.5,52.907,52.5,53
			c0,2.485,2.015,4.5,4.5,4.5s4.5-2.015,4.5-4.5c0-0.427-0.078-0.831-0.189-1.222l13.365-10.943c0.68,0.413,1.47,0.665,2.324,0.665
			c2.485,0,4.5-2.015,4.5-4.5S79.485,32.5,77,32.5z M23,65.5c-1.379,0-2.5-1.121-2.5-2.5s1.121-2.5,2.5-2.5s2.5,1.121,2.5,2.5
			S24.379,65.5,23,65.5z M38,47.5c-1.379,0-2.5-1.122-2.5-2.5s1.121-2.5,2.5-2.5s2.5,1.122,2.5,2.5S39.379,47.5,38,47.5z M57,55.5
			c-1.379,0-2.5-1.121-2.5-2.5s1.121-2.5,2.5-2.5s2.5,1.121,2.5,2.5S58.379,55.5,57,55.5z M77,39.5c-1.379,0-2.5-1.122-2.5-2.5
			s1.121-2.5,2.5-2.5c1.378,0,2.5,1.122,2.5,2.5S78.378,39.5,77,39.5z"/>
	</g>
</g>
</svg>
